<svg width="330.002930" height="11.180664" viewBox="0 0 330.003 11.1807" fill="none" xmlns="http://www.w3.org/2000/svg" xmlns:xlink="http://www.w3.org/1999/xlink">
	<desc>
			Created with Pixso.
	</desc>
	<defs/>
	<rect id="Разделитель" width="328.000000" height="10.000000" transform="translate(1.001465 1.001465)" fill="#FFFFFF" fill-opacity="0"/>
	<path id="Line 5" d="M1.00146 1.00146L35.3667 9.3833C39.7261 10.4463 44.2769 10.4463 48.6362 9.3833L76.3667 2.61963C80.7261 1.55664 85.2769 1.55664 89.6362 2.61963L117.367 9.3833C121.726 10.4463 126.277 10.4463 130.636 9.3833L158.367 2.61963C162.726 1.55664 167.277 1.55664 171.636 2.61963L199.367 9.3833C203.726 10.4463 208.277 10.4463 212.636 9.3833L240.367 2.61963C244.726 1.55664 249.277 1.55664 253.636 2.61963L281.367 9.3833C285.726 10.4463 290.277 10.4463 294.636 9.3833L329.001 1.00146" stroke="#5C8FCE" stroke-opacity="1.000000" stroke-width="2.000000" stroke-linecap="round"/>
</svg>
